<mxfile host="app.diagrams.net" modified="2023-09-11T10:25:42.032Z" agent="Mozilla/5.0 (Macintosh; Intel Mac OS X 10_15_7) AppleWebKit/537.36 (KHTML, like Gecko) Chrome/116.0.0.0 Safari/537.36" version="21.6.6" etag="gauN-kBF4GzU1kbKgTTx" type="github">
  <diagram name="第 1 页" id="llk3EyRXvQeaN0CV_E1r">
    <mxGraphModel>
      <root>
        <mxCell id="0" />
        <mxCell id="1" parent="0" />
      </root>
    </mxGraphModel>
  </diagram>
</mxfile>
